<mxfile host="app.diagrams.net" agent="Mozilla/5.0 (Windows NT 10.0; Win64; x64) AppleWebKit/537.36 (KHTML, like Gecko) Chrome/131.0.0.0 Safari/537.36" version="25.0.1">
  <diagram name="PÃ¡gina-1" id="U-n5hn6dI7hPh3-uWZ1Q">
    <mxGraphModel dx="2261" dy="1949" grid="1" gridSize="10" guides="1" tooltips="1" connect="1" arrows="1" fold="1" page="1" pageScale="1" pageWidth="827" pageHeight="1169" math="0" shadow="0">
      <root>
        <mxCell id="0" />
        <mxCell id="1" parent="0" />
        <mxCell id="VCcE562PPXDDNhMbLSaY-1" value="Adicionar Produto" style="text;html=1;align=center;verticalAlign=middle;whiteSpace=wrap;rounded=0;" vertex="1" parent="1">
          <mxGeometry x="520" y="-1120" width="60" height="30" as="geometry" />
        </mxCell>
        <mxCell id="VCcE562PPXDDNhMbLSaY-2" value=":GerenciadorVendas" style="rounded=0;whiteSpace=wrap;html=1;" vertex="1" parent="1">
          <mxGeometry x="380" y="-1020" width="120" height="30" as="geometry" />
        </mxCell>
        <mxCell id="VCcE562PPXDDNhMbLSaY-3" value="" style="endArrow=none;dashed=1;html=1;rounded=0;entryX=0.5;entryY=1;entryDx=0;entryDy=0;" edge="1" parent="1" source="VCcE562PPXDDNhMbLSaY-5" target="VCcE562PPXDDNhMbLSaY-2">
          <mxGeometry width="50" height="50" relative="1" as="geometry">
            <mxPoint x="420" y="-60" as="sourcePoint" />
            <mxPoint x="446" y="-850" as="targetPoint" />
          </mxGeometry>
        </mxCell>
        <mxCell id="VCcE562PPXDDNhMbLSaY-4" value="" style="endArrow=none;dashed=1;html=1;rounded=0;entryX=0.5;entryY=1;entryDx=0;entryDy=0;" edge="1" parent="1" target="VCcE562PPXDDNhMbLSaY-5">
          <mxGeometry width="50" height="50" relative="1" as="geometry">
            <mxPoint x="440" y="-60" as="sourcePoint" />
            <mxPoint x="420" y="-960" as="targetPoint" />
          </mxGeometry>
        </mxCell>
        <mxCell id="VCcE562PPXDDNhMbLSaY-5" value="" style="html=1;points=[[0,0,0,0,5],[0,1,0,0,-5],[1,0,0,0,5],[1,1,0,0,-5]];perimeter=orthogonalPerimeter;outlineConnect=0;targetShapes=umlLifeline;portConstraint=eastwest;newEdgeStyle={&quot;curved&quot;:0,&quot;rounded&quot;:0};" vertex="1" parent="1">
          <mxGeometry x="435" y="-940" width="10" height="480" as="geometry" />
        </mxCell>
        <mxCell id="VCcE562PPXDDNhMbLSaY-6" value="cadastrarProduto()" style="html=1;verticalAlign=bottom;endArrow=block;curved=0;rounded=0;entryX=0;entryY=0;entryDx=0;entryDy=5;" edge="1" parent="1" source="VCcE562PPXDDNhMbLSaY-46">
          <mxGeometry relative="1" as="geometry">
            <mxPoint x="160" y="-940" as="sourcePoint" />
            <mxPoint x="435" y="-940" as="targetPoint" />
          </mxGeometry>
        </mxCell>
        <mxCell id="VCcE562PPXDDNhMbLSaY-17" value=":Produto" style="rounded=0;whiteSpace=wrap;html=1;" vertex="1" parent="1">
          <mxGeometry x="624" y="-1020" width="120" height="30" as="geometry" />
        </mxCell>
        <mxCell id="VCcE562PPXDDNhMbLSaY-18" value="" style="endArrow=none;dashed=1;html=1;rounded=0;entryX=0.5;entryY=1;entryDx=0;entryDy=0;" edge="1" parent="1" source="VCcE562PPXDDNhMbLSaY-36" target="VCcE562PPXDDNhMbLSaY-17">
          <mxGeometry width="50" height="50" relative="1" as="geometry">
            <mxPoint x="680" y="-10" as="sourcePoint" />
            <mxPoint x="686" y="-810" as="targetPoint" />
          </mxGeometry>
        </mxCell>
        <mxCell id="VCcE562PPXDDNhMbLSaY-25" value="" style="html=1;points=[[0,0,0,0,5],[0,1,0,0,-5],[1,0,0,0,5],[1,1,0,0,-5]];perimeter=orthogonalPerimeter;outlineConnect=0;targetShapes=umlLifeline;portConstraint=eastwest;newEdgeStyle={&quot;curved&quot;:0,&quot;rounded&quot;:0};" vertex="1" parent="1">
          <mxGeometry x="440" y="-910" width="10" height="40" as="geometry" />
        </mxCell>
        <mxCell id="VCcE562PPXDDNhMbLSaY-26" value="input(id: Integer)" style="html=1;verticalAlign=bottom;endArrow=block;rounded=0;edgeStyle=orthogonalEdgeStyle;" edge="1" parent="1" target="VCcE562PPXDDNhMbLSaY-25">
          <mxGeometry x="0.0427" y="54" relative="1" as="geometry">
            <mxPoint x="445" y="-930" as="sourcePoint" />
            <mxPoint x="639" y="-930" as="targetPoint" />
            <Array as="points">
              <mxPoint x="486" y="-930" />
              <mxPoint x="486" y="-910" />
            </Array>
            <mxPoint as="offset" />
          </mxGeometry>
        </mxCell>
        <mxCell id="VCcE562PPXDDNhMbLSaY-27" value="" style="html=1;points=[[0,0,0,0,5],[0,1,0,0,-5],[1,0,0,0,5],[1,1,0,0,-5]];perimeter=orthogonalPerimeter;outlineConnect=0;targetShapes=umlLifeline;portConstraint=eastwest;newEdgeStyle={&quot;curved&quot;:0,&quot;rounded&quot;:0};" vertex="1" parent="1">
          <mxGeometry x="440" y="-840" width="10" height="40" as="geometry" />
        </mxCell>
        <mxCell id="VCcE562PPXDDNhMbLSaY-28" value="input(nome: String)" style="html=1;verticalAlign=bottom;endArrow=block;rounded=0;edgeStyle=orthogonalEdgeStyle;" edge="1" parent="1" target="VCcE562PPXDDNhMbLSaY-27">
          <mxGeometry x="0.0427" y="60" relative="1" as="geometry">
            <mxPoint x="445" y="-860" as="sourcePoint" />
            <mxPoint x="639" y="-860" as="targetPoint" />
            <Array as="points">
              <mxPoint x="486" y="-860" />
              <mxPoint x="486" y="-840" />
            </Array>
            <mxPoint as="offset" />
          </mxGeometry>
        </mxCell>
        <mxCell id="VCcE562PPXDDNhMbLSaY-31" value="" style="html=1;points=[[0,0,0,0,5],[0,1,0,0,-5],[1,0,0,0,5],[1,1,0,0,-5]];perimeter=orthogonalPerimeter;outlineConnect=0;targetShapes=umlLifeline;portConstraint=eastwest;newEdgeStyle={&quot;curved&quot;:0,&quot;rounded&quot;:0};" vertex="1" parent="1">
          <mxGeometry x="440" y="-770" width="10" height="40" as="geometry" />
        </mxCell>
        <mxCell id="VCcE562PPXDDNhMbLSaY-32" value="input(preco: Real)" style="html=1;verticalAlign=bottom;endArrow=block;rounded=0;edgeStyle=orthogonalEdgeStyle;" edge="1" parent="1" target="VCcE562PPXDDNhMbLSaY-31">
          <mxGeometry x="0.0427" y="60" relative="1" as="geometry">
            <mxPoint x="445" y="-790" as="sourcePoint" />
            <mxPoint x="639" y="-790" as="targetPoint" />
            <Array as="points">
              <mxPoint x="486" y="-790" />
              <mxPoint x="486" y="-770" />
            </Array>
            <mxPoint as="offset" />
          </mxGeometry>
        </mxCell>
        <mxCell id="VCcE562PPXDDNhMbLSaY-33" value="" style="html=1;points=[[0,0,0,0,5],[0,1,0,0,-5],[1,0,0,0,5],[1,1,0,0,-5]];perimeter=orthogonalPerimeter;outlineConnect=0;targetShapes=umlLifeline;portConstraint=eastwest;newEdgeStyle={&quot;curved&quot;:0,&quot;rounded&quot;:0};" vertex="1" parent="1">
          <mxGeometry x="440" y="-700" width="10" height="40" as="geometry" />
        </mxCell>
        <mxCell id="VCcE562PPXDDNhMbLSaY-34" value="input(qtd: Integer)" style="html=1;verticalAlign=bottom;endArrow=block;rounded=0;edgeStyle=orthogonalEdgeStyle;" edge="1" parent="1" target="VCcE562PPXDDNhMbLSaY-33">
          <mxGeometry x="0.0427" y="60" relative="1" as="geometry">
            <mxPoint x="445" y="-720" as="sourcePoint" />
            <mxPoint x="639" y="-720" as="targetPoint" />
            <Array as="points">
              <mxPoint x="486" y="-720" />
              <mxPoint x="486" y="-700" />
            </Array>
            <mxPoint as="offset" />
          </mxGeometry>
        </mxCell>
        <mxCell id="VCcE562PPXDDNhMbLSaY-35" value="&lt;u&gt;verificarDados(nome, preco, qtd)&lt;/u&gt;" style="html=1;verticalAlign=bottom;endArrow=block;curved=0;rounded=0;" edge="1" parent="1" target="VCcE562PPXDDNhMbLSaY-36">
          <mxGeometry relative="1" as="geometry">
            <mxPoint x="445" y="-630" as="sourcePoint" />
            <mxPoint x="670" y="-630" as="targetPoint" />
          </mxGeometry>
        </mxCell>
        <mxCell id="VCcE562PPXDDNhMbLSaY-37" value="" style="endArrow=none;dashed=1;html=1;rounded=0;entryX=0.5;entryY=1;entryDx=0;entryDy=0;" edge="1" parent="1" target="VCcE562PPXDDNhMbLSaY-36">
          <mxGeometry width="50" height="50" relative="1" as="geometry">
            <mxPoint x="690" y="-60" as="sourcePoint" />
            <mxPoint x="910" y="-960" as="targetPoint" />
          </mxGeometry>
        </mxCell>
        <mxCell id="VCcE562PPXDDNhMbLSaY-36" value="" style="html=1;points=[[0,0,0,0,5],[0,1,0,0,-5],[1,0,0,0,5],[1,1,0,0,-5]];perimeter=orthogonalPerimeter;outlineConnect=0;targetShapes=umlLifeline;portConstraint=eastwest;newEdgeStyle={&quot;curved&quot;:0,&quot;rounded&quot;:0};" vertex="1" parent="1">
          <mxGeometry x="679" y="-634" width="10" height="50" as="geometry" />
        </mxCell>
        <mxCell id="VCcE562PPXDDNhMbLSaY-43" value=":Interface" style="rounded=0;whiteSpace=wrap;html=1;" vertex="1" parent="1">
          <mxGeometry x="90" y="-1020" width="120" height="30" as="geometry" />
        </mxCell>
        <mxCell id="VCcE562PPXDDNhMbLSaY-44" value="" style="endArrow=none;dashed=1;html=1;rounded=0;entryX=0.5;entryY=1;entryDx=0;entryDy=0;" edge="1" parent="1" source="VCcE562PPXDDNhMbLSaY-46" target="VCcE562PPXDDNhMbLSaY-43">
          <mxGeometry width="50" height="50" relative="1" as="geometry">
            <mxPoint x="150" y="-60" as="sourcePoint" />
            <mxPoint x="156" y="-850" as="targetPoint" />
          </mxGeometry>
        </mxCell>
        <mxCell id="VCcE562PPXDDNhMbLSaY-47" value="" style="endArrow=none;dashed=1;html=1;rounded=0;entryX=0.5;entryY=1;entryDx=0;entryDy=0;" edge="1" parent="1" target="VCcE562PPXDDNhMbLSaY-46">
          <mxGeometry width="50" height="50" relative="1" as="geometry">
            <mxPoint x="150" y="-60" as="sourcePoint" />
            <mxPoint x="150" y="-960" as="targetPoint" />
          </mxGeometry>
        </mxCell>
        <mxCell id="VCcE562PPXDDNhMbLSaY-46" value="" style="html=1;points=[[0,0,0,0,5],[0,1,0,0,-5],[1,0,0,0,5],[1,1,0,0,-5]];perimeter=orthogonalPerimeter;outlineConnect=0;targetShapes=umlLifeline;portConstraint=eastwest;newEdgeStyle={&quot;curved&quot;:0,&quot;rounded&quot;:0};" vertex="1" parent="1">
          <mxGeometry x="145" y="-950" width="10" height="520" as="geometry" />
        </mxCell>
        <mxCell id="VCcE562PPXDDNhMbLSaY-49" value="&lt;u&gt;menuCadastrarProduto()&lt;/u&gt;" style="html=1;verticalAlign=bottom;endArrow=block;curved=0;rounded=0;entryX=0;entryY=0;entryDx=0;entryDy=5;" edge="1" parent="1">
          <mxGeometry relative="1" as="geometry">
            <mxPoint x="-10" y="-950" as="sourcePoint" />
            <mxPoint x="145" y="-950" as="targetPoint" />
          </mxGeometry>
        </mxCell>
        <mxCell id="VCcE562PPXDDNhMbLSaY-50" value=":BancoDeDados" style="rounded=0;whiteSpace=wrap;html=1;" vertex="1" parent="1">
          <mxGeometry x="890" y="-1020" width="120" height="30" as="geometry" />
        </mxCell>
        <mxCell id="VCcE562PPXDDNhMbLSaY-51" value="" style="endArrow=none;dashed=1;html=1;rounded=0;entryX=0.5;entryY=1;entryDx=0;entryDy=0;" edge="1" parent="1" source="VCcE562PPXDDNhMbLSaY-54" target="VCcE562PPXDDNhMbLSaY-50">
          <mxGeometry width="50" height="50" relative="1" as="geometry">
            <mxPoint x="680" y="-430" as="sourcePoint" />
            <mxPoint x="686" y="-850" as="targetPoint" />
          </mxGeometry>
        </mxCell>
        <mxCell id="VCcE562PPXDDNhMbLSaY-55" value="" style="endArrow=none;dashed=1;html=1;rounded=0;entryX=0.5;entryY=1;entryDx=0;entryDy=0;" edge="1" parent="1" target="VCcE562PPXDDNhMbLSaY-54">
          <mxGeometry width="50" height="50" relative="1" as="geometry">
            <mxPoint x="960" y="-50" as="sourcePoint" />
            <mxPoint x="680" y="-960" as="targetPoint" />
          </mxGeometry>
        </mxCell>
        <mxCell id="VCcE562PPXDDNhMbLSaY-54" value="" style="html=1;points=[[0,0,0,0,5],[0,1,0,0,-5],[1,0,0,0,5],[1,1,0,0,-5]];perimeter=orthogonalPerimeter;outlineConnect=0;targetShapes=umlLifeline;portConstraint=eastwest;newEdgeStyle={&quot;curved&quot;:0,&quot;rounded&quot;:0};" vertex="1" parent="1">
          <mxGeometry x="955" y="-530" width="10" height="40" as="geometry" />
        </mxCell>
        <mxCell id="VCcE562PPXDDNhMbLSaY-56" value="" style="html=1;verticalAlign=bottom;endArrow=open;dashed=1;endSize=8;curved=0;rounded=0;" edge="1" parent="1" target="VCcE562PPXDDNhMbLSaY-5">
          <mxGeometry relative="1" as="geometry">
            <mxPoint x="677.5" y="-590" as="sourcePoint" />
            <mxPoint x="450" y="-590" as="targetPoint" />
          </mxGeometry>
        </mxCell>
        <mxCell id="VCcE562PPXDDNhMbLSaY-57" value="" style="html=1;verticalAlign=bottom;endArrow=open;dashed=1;endSize=8;curved=0;rounded=0;" edge="1" parent="1">
          <mxGeometry relative="1" as="geometry">
            <mxPoint x="435" y="-460" as="sourcePoint" />
            <mxPoint x="155" y="-460" as="targetPoint" />
          </mxGeometry>
        </mxCell>
        <mxCell id="VCcE562PPXDDNhMbLSaY-61" value="&lt;u&gt;adicionarProduto(id, nome, preco, quantidade)&lt;/u&gt;" style="html=1;verticalAlign=bottom;endArrow=block;curved=0;rounded=0;" edge="1" parent="1" target="VCcE562PPXDDNhMbLSaY-54">
          <mxGeometry relative="1" as="geometry">
            <mxPoint x="445" y="-530" as="sourcePoint" />
            <mxPoint x="679" y="-530" as="targetPoint" />
          </mxGeometry>
        </mxCell>
        <mxCell id="VCcE562PPXDDNhMbLSaY-62" value="" style="html=1;verticalAlign=bottom;endArrow=open;dashed=1;endSize=8;curved=0;rounded=0;" edge="1" parent="1">
          <mxGeometry relative="1" as="geometry">
            <mxPoint x="955" y="-491" as="sourcePoint" />
            <mxPoint x="445" y="-491" as="targetPoint" />
          </mxGeometry>
        </mxCell>
        <mxCell id="VCcE562PPXDDNhMbLSaY-64" value="&lt;span style=&quot;color: rgb(0, 0, 0); font-family: Helvetica; font-size: 11px; font-style: normal; font-variant-ligatures: normal; font-variant-caps: normal; font-weight: 400; letter-spacing: normal; orphans: 2; text-align: center; text-indent: 0px; text-transform: none; widows: 2; word-spacing: 0px; -webkit-text-stroke-width: 0px; white-space: nowrap; background-color: rgb(251, 251, 251); text-decoration-thickness: initial; text-decoration-style: initial; text-decoration-color: initial; display: inline !important; float: none;&quot;&gt;sucesso: Boolean&lt;/span&gt;" style="text;whiteSpace=wrap;html=1;" vertex="1" parent="1">
          <mxGeometry x="504" y="-610" width="120" height="40" as="geometry" />
        </mxCell>
      </root>
    </mxGraphModel>
  </diagram>
</mxfile>
